<svg xmlns="http://www.w3.org/2000/svg" viewBox="0 0 256 256" fill="none">
  <path fill="#111318" d="M182.7 135.7c-.2-25.6 20.9-37.8 21.8-38.4-11.9-17.5-30.4-19.9-36.9-20.2-15.7-1.6-30.7 9.2-38.7 9.2-8 0-20.3-9-33.4-8.8-17.2.3-33.1 10-41.9 25.4-17.9 31-4.6 76.9 12.9 102 8.5 12.2 18.6 25.9 31.9 25.4 12.8-.5 17.6-8.3 33-8.3 15.4 0 19.7 8.3 33.2 8 13.7-.3 22.4-12.6 30.8-24.9 9.8-14.2 13.8-28 14-28.7-.3-.1-26.9-10.3-27.2-40.7Zm-25.5-73.2c7-8.5 11.7-20.3 10.4-32-10.1.4-22.3 6.7-29.5 15.2-6.5 7.5-12.2 19.5-10.6 31 11.3.9 22.7-5.7 29.7-14.2Z"/>
</svg>
